<svg id="Layer_1" data-name="Layer 1" xmlns="http://www.w3.org/2000/svg" viewBox="0 0 360 144"><defs><style>.cls-1,.cls-2{fill:#fff;}.cls-2{fill-rule:evenodd;}</style></defs><title>Cart to car White Color</title><path class="cls-1" d="M168.73,52.88v7.5H158.56v30.9h-9.35V60.38H139v-7.5ZM114.8,70.17h5.79a5.31,5.31,0,0,0,3.86-1.26,4.74,4.74,0,0,0,1.29-3.56,4.58,4.58,0,0,0-1.29-3.44,5.31,5.31,0,0,0-3.86-1.26H114.8ZM125,91.28l-8-14.49H114.8V91.28h-9.36V52.88h15.7a17.23,17.23,0,0,1,7.74,1.59,10.82,10.82,0,0,1,4.79,4.35A12.1,12.1,0,0,1,135.26,65a11.46,11.46,0,0,1-2.17,6.84,11.65,11.65,0,0,1-6.37,4.27l8.86,15.2Zm-38.41-14L81.86,63.22l-4.7,14.06ZM89,84.5H74.7l-2.3,6.78H62.61L76.5,52.88H87.33l13.9,38.4h-9.9ZM21.85,72a20.64,20.64,0,0,1,2.46-10.15,17.6,17.6,0,0,1,6.87-7,19.92,19.92,0,0,1,10-2.49,19.16,19.16,0,0,1,11.71,3.61,17.31,17.31,0,0,1,6.51,9.85H49.09a8.25,8.25,0,0,0-3.25-3.66A9.14,9.14,0,0,0,41.05,61a8.92,8.92,0,0,0-7,3,11.61,11.61,0,0,0-2.68,8,11.64,11.64,0,0,0,2.68,8,9,9,0,0,0,7,3,9.14,9.14,0,0,0,4.79-1.26,8.28,8.28,0,0,0,3.25-3.67H59.38A17.14,17.14,0,0,1,52.87,88a19.22,19.22,0,0,1-11.71,3.59,19.92,19.92,0,0,1-10-2.49,17.65,17.65,0,0,1-6.87-6.92A20.52,20.52,0,0,1,21.85,72Z"/><path class="cls-1" d="M317.36,70.17h5.8A5.28,5.28,0,0,0,327,68.91a4.74,4.74,0,0,0,1.29-3.56A4.58,4.58,0,0,0,327,61.91a5.28,5.28,0,0,0-3.85-1.26h-5.8Zm10.23,21.11-8-14.49h-2.24V91.28H308V52.88h15.71a17.29,17.29,0,0,1,7.74,1.59,10.8,10.8,0,0,1,4.78,4.35A12.1,12.1,0,0,1,337.82,65a11.45,11.45,0,0,1-2.16,6.84,11.69,11.69,0,0,1-6.37,4.27l8.86,15.2Zm-38.4-14-4.76-14.06-4.71,14.06Zm2.4,7.22H277.26L275,91.28h-9.79l13.9-38.4H289.9l13.89,38.4h-9.9ZM224.42,72a20.64,20.64,0,0,1,2.46-10.15,17.64,17.64,0,0,1,6.86-7,20,20,0,0,1,10-2.49,19.11,19.11,0,0,1,11.7,3.61,17.31,17.31,0,0,1,6.51,9.85H251.66a8.27,8.27,0,0,0-3.26-3.66A9.13,9.13,0,0,0,243.62,61a8.91,8.91,0,0,0-7,3,11.61,11.61,0,0,0-2.69,8,11.64,11.64,0,0,0,2.69,8,8.94,8.94,0,0,0,7,3,9.13,9.13,0,0,0,4.78-1.26,8.3,8.3,0,0,0,3.26-3.67h10.28A17.14,17.14,0,0,1,255.43,88a19.16,19.16,0,0,1-11.7,3.59,20,20,0,0,1-10-2.49,17.69,17.69,0,0,1-6.86-6.92A20.52,20.52,0,0,1,224.42,72Z"/><polygon class="cls-1" points="202.22 64.24 202.22 66.78 198.76 66.78 198.76 77.96 195.58 77.96 195.58 66.78 192.12 66.78 192.12 64.24 202.22 64.24"/><path class="cls-1" d="M207.8,75.27a3.19,3.19,0,0,0,2.5-1,4.51,4.51,0,0,0,0-5.51,3.21,3.21,0,0,0-2.5-1,3.26,3.26,0,0,0-2.52,1,4.54,4.54,0,0,0,0,5.53,3.23,3.23,0,0,0,2.52,1m0,2.9a6.84,6.84,0,0,1-3.38-.85A6.41,6.41,0,0,1,202,74.93,7,7,0,0,1,202,68a6.45,6.45,0,0,1,2.43-2.38,7.13,7.13,0,0,1,6.75,0A6.36,6.36,0,0,1,213.59,68a7.15,7.15,0,0,1,0,6.89,6.38,6.38,0,0,1-2.42,2.39A6.74,6.74,0,0,1,207.8,78.17Z"/><path class="cls-2" d="M213.16,82.06H215l.25-1.11a4.17,4.17,0,0,1-.57.18l-.14,0-.14-.07-1.59.37Z"/><path class="cls-2" d="M213.16,82.06c1.31,0,1.51-.55,2.12-1.1L221.82,64h-2c-.91,2.53-2.05,5.16-3,7.63-.65,1.66-1.18,3-1.8,4.57-.44,1.14-1.2,3.91-2.07,4.13H193.66a69.24,69.24,0,0,0-2.9-7.72c-.59-1.55-3.41-10.18-4.85-11.22l-10-5.69a5.48,5.48,0,0,1-.82,1.42c2.2,1.23,4.41,2.58,6.7,3.88,3.77,2.13,3,1.74,4.63,6l5.82,15Z"/><path class="cls-2" d="M208.84,88.09c.8,5.26,9.15,4.35,8.32-1.48-.74-5.17-9.22-4.37-8.32,1.48m3.3-3c3.32-1.43,4.65,3.48,2,4.61a2.62,2.62,0,0,1-3.49-3.47C211.12,85.3,211.44,85.37,212.14,85.07Z"/><path class="cls-2" d="M189.93,87.79a4.23,4.23,0,0,0,8.42-.89c-.44-5.19-8.89-4.76-8.42.89M193.29,85c3-1.44,4.69,3.37,2.05,4.62C192.46,91,189.59,86.77,193.29,85Z"/><path class="cls-2" d="M173,56.16c1,.91,1.17.76,2.31-.06-.11-1-.12-1.68-1.22-1.7s-1.22.68-1.09,1.76"/></svg>