<svg id="Layer_1" data-name="Layer 1" xmlns="http://www.w3.org/2000/svg" viewBox="0 0 335.15 42.68"><defs><style>.cls-1,.cls-2{fill:#fff;}.cls-2{fill-rule:evenodd;}</style></defs><polygon class="cls-1" points="221.67 13.04 221.67 15.8 217.92 15.8 217.92 27.92 214.47 27.92 214.47 15.8 210.72 15.8 210.72 13.04 221.67 13.04"/><path class="cls-1" d="M240.15,75.67a3.48,3.48,0,0,0,2.71-1.13,4.89,4.89,0,0,0,0-6,3.47,3.47,0,0,0-2.71-1.12,3.51,3.51,0,0,0-2.73,1.11,4.92,4.92,0,0,0,0,6,3.49,3.49,0,0,0,2.73,1.12m0,3.15a7.38,7.38,0,0,1-3.66-.93,6.91,6.91,0,0,1-2.64-2.59,7.63,7.63,0,0,1,0-7.48,7,7,0,0,1,2.64-2.58,7.74,7.74,0,0,1,7.32,0,6.83,6.83,0,0,1,2.62,2.58,7.73,7.73,0,0,1,0,7.48,6.86,6.86,0,0,1-2.62,2.59A7.31,7.31,0,0,1,240.15,78.82Z" transform="translate(-12.42 -50.66)"/><path class="cls-2" d="M246,83l2,0,.28-1.21a5.55,5.55,0,0,1-.62.2l-.16,0a1,1,0,0,1-.15-.07l-1.72.4Z" transform="translate(-12.42 -50.66)"/><path class="cls-2" d="M246,83c1.42,0,1.64-.59,2.3-1.19l7.1-18.38h-2.22c-1,2.74-2.23,5.6-3.27,8.27-.7,1.81-1.28,3.24-1.94,5-.48,1.24-1.32,4.25-2.25,4.49H224.81c-.56-2.41-2.19-5.88-3.14-8.38-.65-1.68-3.71-11-5.27-12.17l-10.89-6.17a6.26,6.26,0,0,1-.9,1.54c2.4,1.33,4.79,2.8,7.28,4.2,4.09,2.32,3.24,1.89,5,6.49L223.22,83Z" transform="translate(-12.42 -50.66)"/><path class="cls-2" d="M241.28,89.58c.87,5.7,9.93,4.72,9-1.61-.81-5.61-10-4.74-9,1.61m3.58-3.28c3.6-1.55,5,3.78,2.21,5a2.83,2.83,0,0,1-3.78-3.76C243.75,86.55,244.1,86.63,244.86,86.3Z" transform="translate(-12.42 -50.66)"/><path class="cls-2" d="M220.76,89.25a4.6,4.6,0,0,0,9.14-1c-.48-5.64-9.65-5.17-9.14,1m3.64-3c3.31-1.56,5.1,3.66,2.23,5C223.51,92.75,220.39,88.15,224.4,86.25Z" transform="translate(-12.42 -50.66)"/><path class="cls-2" d="M202.38,54.93c1.11,1,1.26.82,2.51-.07-.13-1.11-.14-1.82-1.33-1.84s-1.33.73-1.18,1.91" transform="translate(-12.42 -50.66)"/><path class="cls-1" d="M181.47,93.19a21.23,21.23,0,0,1-8.16-1.48,13.27,13.27,0,0,1-5.77-4.38,12,12,0,0,1-2.28-7H176a5.22,5.22,0,0,0,1.59,3.52,5.14,5.14,0,0,0,3.55,1.22,5.56,5.56,0,0,0,3.55-1,3.46,3.46,0,0,0,1.3-2.87,3.39,3.39,0,0,0-1-2.54A8.46,8.46,0,0,0,182.44,77a43.29,43.29,0,0,0-4.28-1.48A45.42,45.42,0,0,1,171.59,73a12.16,12.16,0,0,1-4.38-3.67A10.21,10.21,0,0,1,165.38,63a10.89,10.89,0,0,1,4.2-9.08q4.2-3.27,10.94-3.28t11.06,3.28a11.77,11.77,0,0,1,4.5,9.14h-11a4.26,4.26,0,0,0-1.47-3.16,5.21,5.21,0,0,0-3.49-1.16,4.35,4.35,0,0,0-3,1,3.52,3.52,0,0,0-1.12,2.81A3.47,3.47,0,0,0,178,65.68a31,31,0,0,0,5.91,2.43,55.42,55.42,0,0,1,6.54,2.6,12.57,12.57,0,0,1,4.35,3.61,9.68,9.68,0,0,1,1.83,6.09,12,12,0,0,1-1.8,6.45,12.66,12.66,0,0,1-5.24,4.61,17.84,17.84,0,0,1-8.1,1.72M161.36,51.25v8.11h-11V92.77H140.24V59.36h-11V51.25ZM103,69.94h6.27a5.74,5.74,0,0,0,4.17-1.36,5.13,5.13,0,0,0,1.39-3.84A5,5,0,0,0,113.48,61a5.78,5.78,0,0,0-4.17-1.36H103ZM114.1,92.77,105.46,77.1H103V92.77H92.92V51.25h17A18.62,18.62,0,0,1,118.27,53a11.75,11.75,0,0,1,5.17,4.7,13.05,13.05,0,0,1,1.72,6.65,12.37,12.37,0,0,1-2.34,7.4,12.54,12.54,0,0,1-6.89,4.61l9.58,16.44ZM72.58,77.63l-5.15-15.2-5.09,15.2Zm2.6,7.81H59.68L57.2,92.77H46.61l15-41.52H73.35l15,41.52H77.66ZM28,69.83a6,6,0,0,0,4.32-1.37,5.9,5.9,0,0,0,0-7.68A6,6,0,0,0,28,59.42h-5.5V69.83Zm16-5.21a13.34,13.34,0,0,1-1.66,6.6A12.2,12.2,0,0,1,37.32,76a17.89,17.89,0,0,1-8.51,1.83H22.54v14.9H12.42V51.25H28.81A18.58,18.58,0,0,1,37.21,53a11.77,11.77,0,0,1,5.14,4.73A13.69,13.69,0,0,1,44.07,64.62Z" transform="translate(-12.42 -50.66)"/><path class="cls-1" d="M326.34,84a10.18,10.18,0,0,0,8-3.31,12.58,12.58,0,0,0,3-8.75,12.57,12.57,0,0,0-3-8.79,10.22,10.22,0,0,0-8-3.28,10.34,10.34,0,0,0-8,3.25q-3,3.26-3,8.82a12.56,12.56,0,0,0,3,8.78,10.29,10.29,0,0,0,8,3.28m0,9.23a21.69,21.69,0,0,1-10.73-2.72,20.34,20.34,0,0,1-7.75-7.6,22.36,22.36,0,0,1,0-21.92,20.41,20.41,0,0,1,7.75-7.57,22.54,22.54,0,0,1,21.47,0A20.11,20.11,0,0,1,344.77,61a22.67,22.67,0,0,1,0,21.92,20.33,20.33,0,0,1-7.69,7.6A21.54,21.54,0,0,1,326.34,93.19ZM289.2,64.38A7.58,7.58,0,0,0,286,61.22,10.51,10.51,0,0,0,281,60.13a10.15,10.15,0,0,0-7.87,3.22,12.24,12.24,0,0,0-3,8.6q0,5.74,3.11,9a11.34,11.34,0,0,0,8.54,3.22,10.33,10.33,0,0,0,6.3-1.89,10.75,10.75,0,0,0,3.76-5.45H279.08V69.35h22v9.41a19.82,19.82,0,0,1-3.82,7,20.18,20.18,0,0,1-6.83,5.26,21.14,21.14,0,0,1-9.35,2,22.18,22.18,0,0,1-11-2.69,19.16,19.16,0,0,1-7.51-7.48,22,22,0,0,1-2.69-11,22.18,22.18,0,0,1,2.69-11,19.22,19.22,0,0,1,7.48-7.51,22,22,0,0,1,11-2.69,21.21,21.21,0,0,1,12.56,3.61,17,17,0,0,1,6.78,10Z" transform="translate(-12.42 -50.66)"/></svg>